<svg data-name="Layer 1" xmlns="http://www.w3.org/2000/svg" viewBox="0 0 536.56 204.06">
  <path d="M161.44 137.29c-.65-2.6-.81-59.57-.19-63.88 7.54 21.38 15.26 42.22 22.59 63.7-7.82.41-15.15.18-22.4.18m-2.79-.18h-22.56c.15-2.69 20.14-57 22.5-61.36.58 2.2.68 58.07.06 61.36m-106.36 0H29.4c-.94-.85-.78-1.81-.78-2.7V76.48a1.5 1.5 0 0 1 .38-.94c8 20.31 15.44 40.84 23.28 61.57m-26 .18c-7.39 0-14.66.08-22.51-.05 7.38-21.53 15.09-42.34 22.48-63.41.68 2.38.76 60.22 0 63.46m159-2.37q-3.87-10.77-7.76-21.52c-4.32-12-8.67-24.1-12.92-36.18-.72-2.08-1.93-4.27-1.91-6.57h14.6v-4.43H10.58v4.48h14a4.34 4.34 0 0 1-.41 3.29q-5.58 15.71-11.21 31.57c-3.49 9.76-7 19.5-10.5 29.26-.46 1.27-.89 2.45-2.46 2.87a108 108 0 0 0 7.31 10.53h41l7.28-10.24a5.86 5.86 0 0 1-2.16-3.14c-3.06-8.29-6.19-16.56-9.27-24.84q-6.74-18-13.42-36c-.4-1.07-1.12-2.14-.76-3.33h127.8a13 13 0 0 1-1.23 4.39q-10.64 28.59-21.29 57.16c-.77 2.07-1.35 4.22-3 5.93 2.44 3.52 4.71 7 7.27 10.1h40.83a105 105 0 0 0 7.5-10.72c-1.95-.14-2.17-1.43-2.58-2.59M6.63 63.09c4.31.12 87.29.05 87.29.05s83 .07 87.28-.05 4.19-5.54 4.19-5.54a8.24 8.24 0 0 1-8.13 3.7c-4.09-.66-49.65-17.64-71.62-25.89v-4.41H82.2v4.41c-22 8.25-67.53 25.23-71.62 25.89a8.24 8.24 0 0 1-8.13-3.7s-.12 5.42 4.18 5.54m97.77-35.2v-1.57c-4.28-4.17-4.09-9.82-4.95-12.46-.68-2.07-2.53-2-5.53-2s-4.85-.09-5.53 2c-.86 2.64-.67 8.29-5 12.46v1.57ZM93.92 8.82h1.5c0-1.24 1.19-2.16 1-4.41S93.91 0 93.91 0s-2.34 2.16-2.51 4.41 1 3.17 1 4.41Zm0 0" style="fill:#494949"/>
  <path d="M163.08 496.37H122v-72.71h12v60.73h29.13Zm0 0" transform="translate(-35.3 -292.3)" style="fill:#d88c30"/>
  <path d="M112.93 366h-21v54.4h12V378h3.06v117.89h12V378H122v42.4h12V366Zm0 0" transform="translate(-35.3 -292.3)" style="fill:#eaa33d"/>
  <path d="M164.26 481.32H137V441h12v28.4h3.31v-29.68L137 426.39V366h27.25v54.4h-12V378H149v42.94l15.28 13.33Zm0 0" transform="translate(-35.3 -292.3)" style="fill:#cc842e"/>
  &quot;/&gt;
</svg>
